<svg width="23" height="22" viewBox="0 0 23 22" fill="none" xmlns="http://www.w3.org/2000/svg">
<g clip-path="url(#clip0_1111_270)">
<path d="M11.4 4.54333C12.8551 4.54333 14.1911 5.04151 15.2577 5.86999L18.5311 2.74702C16.6279 1.06929 14.1366 0.043335 11.4 0.043335C7.25316 0.043335 3.65701 2.38326 1.84723 5.8122L5.48722 8.68584C6.36898 6.27077 8.67974 4.54333 11.4 4.54333Z" fill="#FEFEFE"/>
<path d="M22.1065 12.195C22.1627 11.7526 22.2 11.3012 22.2 10.8434C22.2 10.0713 22.1157 9.31953 21.9617 8.59338H11.4V13.0934H17.2376C16.7654 14.3208 15.9245 15.3594 14.8542 16.0809L18.5077 18.9652C20.4445 17.2653 21.7698 14.8847 22.1065 12.195Z" fill="#FEFEFE"/>
<path d="M5.09998 10.8434C5.09998 10.0843 5.24115 9.35985 5.48719 8.68589L1.8472 5.81226C1.05388 7.31541 0.599976 9.02554 0.599976 10.8434C0.599976 12.6409 1.04553 14.3321 1.82237 15.8231L5.46697 12.9457C5.23357 12.2874 5.09998 11.5818 5.09998 10.8434Z" fill="#FEFEFE"/>
<path d="M11.4 17.1433C8.65902 17.1433 6.33337 15.3897 5.46699 12.9457L1.82239 15.823C3.62332 19.2795 7.23282 21.6433 11.4 21.6433C14.125 21.6433 16.6099 20.631 18.5077 18.9652L14.8542 16.0808C13.8671 16.7463 12.6856 17.1433 11.4 17.1433Z" fill="#FEFEFE"/>
<path opacity="0.1" d="M11.3999 21.4184C8.22141 21.4184 5.36337 20.107 3.34271 18.0176C5.32075 20.2374 8.19274 21.6434 11.3999 21.6434C14.5774 21.6434 17.4256 20.2652 19.3992 18.0801C17.3846 20.1356 14.5482 21.4184 11.3999 21.4184Z" fill="#FEFEFE"/>
<path opacity="0.1" d="M11.4 12.8683V13.0933H17.2376L17.3288 12.8683H11.4Z" fill="#FEFEFE"/>
<path d="M22.195 10.9757C22.1957 10.9313 22.2 10.8878 22.2 10.8433C22.2 10.8307 22.198 10.8186 22.198 10.806C22.1974 10.8627 22.1945 10.9188 22.195 10.9757Z" fill="#B31D1D"/>
<path opacity="0.2" d="M11.4 8.59338V8.81838H22.007C21.9929 8.74412 21.9774 8.6671 21.9617 8.59338H11.4Z" fill="#FEFEFE"/>
<path d="M21.9617 8.59334H11.4V13.0933H17.2376C16.3298 15.4528 14.0794 17.1433 11.4 17.1433C7.92061 17.1433 5.09998 14.3227 5.09998 10.8433C5.09998 7.36391 7.92061 4.54333 11.4 4.54333C12.6616 4.54333 13.8245 4.93093 14.8096 5.56995C14.9604 5.66795 15.116 5.75996 15.2577 5.86999L18.5311 2.74702L18.4573 2.69022C16.5632 1.04869 14.1032 0.043335 11.4 0.043335C5.43528 0.043335 0.599976 4.87864 0.599976 10.8433C0.599976 16.808 5.43528 21.6433 11.4 21.6433C16.9059 21.6433 21.4399 17.5202 22.1064 12.195C22.1627 11.7525 22.2 11.3011 22.2 10.8433C22.2 10.0713 22.1157 9.31948 21.9617 8.59334Z" fill="#FEFEFE"/>
<path opacity="0.1" d="M14.8096 5.34501C13.8244 4.70599 12.6616 4.31839 11.3999 4.31839C7.92054 4.31839 5.09991 7.13897 5.09991 10.6184C5.09991 10.6563 5.10043 10.686 5.10108 10.7239C5.16178 7.29695 7.9585 4.54339 11.3999 4.54339C12.6616 4.54339 13.8244 4.93099 14.8096 5.57001C14.9604 5.66801 15.1159 5.76002 15.2576 5.87004L18.531 2.74707L15.2576 5.64504C15.1159 5.53502 14.9604 5.44301 14.8096 5.34501Z" fill="#FEFEFE"/>
<path opacity="0.2" d="M11.4 0.268335C14.0775 0.268335 16.5146 1.25688 18.4013 2.87078L18.5311 2.74702L18.4321 2.66078C16.538 1.01926 14.1032 0.043335 11.4 0.043335C5.43528 0.043335 0.599976 4.87864 0.599976 10.8433C0.599976 10.8813 0.605249 10.9179 0.605634 10.9558C0.666608 5.0436 5.47324 0.268335 11.4 0.268335Z" fill="#FEFEFE"/>
</g>
<defs>
<clipPath id="clip0_1111_270">
<rect width="21.6" height="21.6" fill="white" transform="translate(0.599976 0.043335)"/>
</clipPath>
</defs>
</svg>
